<svg xmlns="http://www.w3.org/2000/svg" viewBox="0 0 120 100"><g fill="#fff" stroke="#121212" stroke-width="1.6" stroke-linejoin="round" stroke-linecap="round"><path d="M22,32 Q60,80 98,32 L98,44 Q60,92 22,44 Z"/></g><g fill="none" stroke="#121212" stroke-width="0.9" stroke-linecap="round"><path d="M22,36 Q60,84 98,36"/><path d="M22,40 Q60,88 98,40"/></g><g stroke="#121212" stroke-width="1" stroke-linecap="round"><line x1="24" y1="44" x2="22" y2="52"/><line x1="27" y1="45" x2="26" y2="53"/><line x1="30" y1="45" x2="30" y2="53"/><line x1="96" y1="44" x2="98" y2="52"/><line x1="93" y1="45" x2="94" y2="53"/><line x1="90" y1="45" x2="90" y2="53"/></g><g fill="#fff" stroke="#121212" stroke-width="1.5" stroke-linejoin="round" stroke-linecap="round"><path d="M14,30 q0,-8 7,-8 q7,0 7,8 l0,5 q0,3 -3,3 l-8,0 q-3,0 -3,-3 z"/><path d="M18,24 l0,-4 M22,23 l0,-5 M25,24 l0,-4"/><path d="M106,30 q0,-8 -7,-8 q-7,0 -7,8 l0,5 q0,3 3,3 l8,0 q3,0 3,-3 z"/><path d="M102,24 l0,-4 M98,23 l0,-5 M95,24 l0,-4"/></g></svg>
