<svg xmlns="http://www.w3.org/2000/svg" viewBox="0 0 100 90"><g fill="none" stroke="#121212" stroke-width="1.6" stroke-linecap="round" stroke-linejoin="round"><path d="M28,68 Q34,66 40,68" stroke-width="1"/><path d="M45,25 Q45,20 49,20 Q53,20 53,25" stroke-width="1"/><path d="M52,26 Q52,20 56,20 Q60,20 60,25" stroke-width="1"/><path d="M25,38 L28,60 Q29,66 36,66 L58,66 Q65,66 66,60 L69,38 Z" fill="#fff"/><path d="M25,38 L69,38" /><path d="M69,42 Q80,42 80,50 Q80,58 68,58" /><ellipse cx="47" cy="38" rx="22" ry="4" fill="#fff"/><path d="M20,74 L74,74" /></g></svg>
