<svg xmlns="http://www.w3.org/2000/svg" viewBox="0 0 100 100">
        <g transform="translate(50,50)">
          <g fill="#fff" stroke="#121212" stroke-width="1.3" stroke-linejoin="round">
            <path d="M0,-14 C7,-23.9 7,-33 0,-36 C-7,-33 -7,-23.9 0,-14 Z" transform="rotate(0)"/><path d="M0,-14 C7,-23.9 7,-33 0,-36 C-7,-33 -7,-23.9 0,-14 Z" transform="rotate(22.5)"/><path d="M0,-14 C7,-23.9 7,-33 0,-36 C-7,-33 -7,-23.9 0,-14 Z" transform="rotate(45)"/><path d="M0,-14 C7,-23.9 7,-33 0,-36 C-7,-33 -7,-23.9 0,-14 Z" transform="rotate(67.5)"/>
            <path d="M0,-14 C7,-23.9 7,-33 0,-36 C-7,-33 -7,-23.9 0,-14 Z" transform="rotate(90)"/><path d="M0,-14 C7,-23.9 7,-33 0,-36 C-7,-33 -7,-23.9 0,-14 Z" transform="rotate(112.5)"/><path d="M0,-14 C7,-23.9 7,-33 0,-36 C-7,-33 -7,-23.9 0,-14 Z" transform="rotate(135)"/><path d="M0,-14 C7,-23.9 7,-33 0,-36 C-7,-33 -7,-23.9 0,-14 Z" transform="rotate(157.5)"/>
            <path d="M0,-14 C7,-23.9 7,-33 0,-36 C-7,-33 -7,-23.9 0,-14 Z" transform="rotate(180)"/><path d="M0,-14 C7,-23.9 7,-33 0,-36 C-7,-33 -7,-23.9 0,-14 Z" transform="rotate(202.5)"/><path d="M0,-14 C7,-23.9 7,-33 0,-36 C-7,-33 -7,-23.9 0,-14 Z" transform="rotate(225)"/><path d="M0,-14 C7,-23.9 7,-33 0,-36 C-7,-33 -7,-23.9 0,-14 Z" transform="rotate(247.5)"/>
            <path d="M0,-14 C7,-23.9 7,-33 0,-36 C-7,-33 -7,-23.9 0,-14 Z" transform="rotate(270)"/><path d="M0,-14 C7,-23.9 7,-33 0,-36 C-7,-33 -7,-23.9 0,-14 Z" transform="rotate(292.5)"/><path d="M0,-14 C7,-23.9 7,-33 0,-36 C-7,-33 -7,-23.9 0,-14 Z" transform="rotate(315)"/><path d="M0,-14 C7,-23.9 7,-33 0,-36 C-7,-33 -7,-23.9 0,-14 Z" transform="rotate(337.5)"/>
            <path d="M0,-12 C5,-18.75 5,-24 0,-27 C-5,-24 -5,-18.75 0,-12 Z" transform="rotate(11.25)"/><path d="M0,-12 C5,-18.75 5,-24 0,-27 C-5,-24 -5,-18.75 0,-12 Z" transform="rotate(33.75)"/><path d="M0,-12 C5,-18.75 5,-24 0,-27 C-5,-24 -5,-18.75 0,-12 Z" transform="rotate(56.25)"/><path d="M0,-12 C5,-18.75 5,-24 0,-27 C-5,-24 -5,-18.75 0,-12 Z" transform="rotate(78.75)"/>
            <path d="M0,-12 C5,-18.75 5,-24 0,-27 C-5,-24 -5,-18.75 0,-12 Z" transform="rotate(101.25)"/><path d="M0,-12 C5,-18.75 5,-24 0,-27 C-5,-24 -5,-18.75 0,-12 Z" transform="rotate(123.75)"/><path d="M0,-12 C5,-18.75 5,-24 0,-27 C-5,-24 -5,-18.75 0,-12 Z" transform="rotate(146.25)"/><path d="M0,-12 C5,-18.75 5,-24 0,-27 C-5,-24 -5,-18.75 0,-12 Z" transform="rotate(168.75)"/>
            <path d="M0,-12 C5,-18.75 5,-24 0,-27 C-5,-24 -5,-18.75 0,-12 Z" transform="rotate(191.25)"/><path d="M0,-12 C5,-18.75 5,-24 0,-27 C-5,-24 -5,-18.75 0,-12 Z" transform="rotate(213.75)"/><path d="M0,-12 C5,-18.75 5,-24 0,-27 C-5,-24 -5,-18.75 0,-12 Z" transform="rotate(236.25)"/><path d="M0,-12 C5,-18.75 5,-24 0,-27 C-5,-24 -5,-18.75 0,-12 Z" transform="rotate(258.75)"/>
            <path d="M0,-12 C5,-18.75 5,-24 0,-27 C-5,-24 -5,-18.75 0,-12 Z" transform="rotate(281.25)"/><path d="M0,-12 C5,-18.75 5,-24 0,-27 C-5,-24 -5,-18.75 0,-12 Z" transform="rotate(303.75)"/><path d="M0,-12 C5,-18.75 5,-24 0,-27 C-5,-24 -5,-18.75 0,-12 Z" transform="rotate(326.25)"/><path d="M0,-12 C5,-18.75 5,-24 0,-27 C-5,-24 -5,-18.75 0,-12 Z" transform="rotate(348.75)"/>
          </g>
          <g stroke="#121212" stroke-width="0.7">
            <line x1="0" y1="-16" x2="0" y2="-32" transform="rotate(0)"/><line x1="0" y1="-16" x2="0" y2="-32" transform="rotate(22.5)"/><line x1="0" y1="-16" x2="0" y2="-32" transform="rotate(45)"/><line x1="0" y1="-16" x2="0" y2="-32" transform="rotate(67.5)"/>
            <line x1="0" y1="-16" x2="0" y2="-32" transform="rotate(90)"/><line x1="0" y1="-16" x2="0" y2="-32" transform="rotate(112.5)"/><line x1="0" y1="-16" x2="0" y2="-32" transform="rotate(135)"/><line x1="0" y1="-16" x2="0" y2="-32" transform="rotate(157.5)"/>
            <line x1="0" y1="-16" x2="0" y2="-32" transform="rotate(180)"/><line x1="0" y1="-16" x2="0" y2="-32" transform="rotate(202.5)"/><line x1="0" y1="-16" x2="0" y2="-32" transform="rotate(225)"/><line x1="0" y1="-16" x2="0" y2="-32" transform="rotate(247.5)"/>
            <line x1="0" y1="-16" x2="0" y2="-32" transform="rotate(270)"/><line x1="0" y1="-16" x2="0" y2="-32" transform="rotate(292.5)"/><line x1="0" y1="-16" x2="0" y2="-32" transform="rotate(315)"/><line x1="0" y1="-16" x2="0" y2="-32" transform="rotate(337.5)"/>
            <line x1="0" y1="-14" x2="0" y2="-23" transform="rotate(11.25)"/><line x1="0" y1="-14" x2="0" y2="-23" transform="rotate(33.75)"/><line x1="0" y1="-14" x2="0" y2="-23" transform="rotate(56.25)"/><line x1="0" y1="-14" x2="0" y2="-23" transform="rotate(78.75)"/>
            <line x1="0" y1="-14" x2="0" y2="-23" transform="rotate(101.25)"/><line x1="0" y1="-14" x2="0" y2="-23" transform="rotate(123.75)"/><line x1="0" y1="-14" x2="0" y2="-23" transform="rotate(146.25)"/><line x1="0" y1="-14" x2="0" y2="-23" transform="rotate(168.75)"/>
            <line x1="0" y1="-14" x2="0" y2="-23" transform="rotate(191.25)"/><line x1="0" y1="-14" x2="0" y2="-23" transform="rotate(213.75)"/><line x1="0" y1="-14" x2="0" y2="-23" transform="rotate(236.25)"/><line x1="0" y1="-14" x2="0" y2="-23" transform="rotate(258.75)"/>
            <line x1="0" y1="-14" x2="0" y2="-23" transform="rotate(281.25)"/><line x1="0" y1="-14" x2="0" y2="-23" transform="rotate(303.75)"/><line x1="0" y1="-14" x2="0" y2="-23" transform="rotate(326.25)"/><line x1="0" y1="-14" x2="0" y2="-23" transform="rotate(348.75)"/>
          </g>
          <g fill="#121212">
            <circle cx="-6" cy="-9.6" r="0.85"/><circle cx="-3.6" cy="-9.6" r="0.85"/><circle cx="-1.2" cy="-9.6" r="0.85"/><circle cx="1.2" cy="-9.6" r="0.85"/><circle cx="3.6" cy="-9.6" r="0.85"/><circle cx="6" cy="-9.6" r="0.85"/><circle cx="-7.2" cy="-7.2" r="0.85"/><circle cx="-4.8" cy="-7.2" r="0.85"/>
            <circle cx="-2.4" cy="-7.2" r="0.85"/><circle cx="0" cy="-7.2" r="0.85"/><circle cx="2.4" cy="-7.2" r="0.85"/><circle cx="4.8" cy="-7.2" r="0.85"/><circle cx="7.2" cy="-7.2" r="0.85"/><circle cx="-8.4" cy="-4.8" r="0.85"/><circle cx="-6" cy="-4.8" r="0.85"/><circle cx="-3.6" cy="-4.8" r="0.85"/>
            <circle cx="-1.2" cy="-4.8" r="0.85"/><circle cx="1.2" cy="-4.8" r="0.85"/><circle cx="3.6" cy="-4.8" r="0.85"/><circle cx="6" cy="-4.8" r="0.85"/><circle cx="8.4" cy="-4.8" r="0.85"/><circle cx="-9.6" cy="-2.4" r="0.85"/><circle cx="-7.2" cy="-2.4" r="0.85"/><circle cx="-4.8" cy="-2.4" r="0.85"/>
            <circle cx="-2.4" cy="-2.4" r="0.85"/><circle cx="0" cy="-2.4" r="0.85"/><circle cx="2.4" cy="-2.4" r="0.85"/><circle cx="4.8" cy="-2.4" r="0.85"/><circle cx="7.2" cy="-2.4" r="0.85"/><circle cx="9.6" cy="-2.4" r="0.85"/><circle cx="-10.8" cy="0" r="0.85"/><circle cx="-8.4" cy="0" r="0.85"/>
            <circle cx="-6" cy="0" r="0.85"/><circle cx="-3.6" cy="0" r="0.85"/><circle cx="-1.2" cy="0" r="0.85"/><circle cx="1.2" cy="0" r="0.85"/><circle cx="3.6" cy="0" r="0.85"/><circle cx="6" cy="0" r="0.85"/><circle cx="8.4" cy="0" r="0.85"/><circle cx="10.8" cy="0" r="0.85"/>
            <circle cx="-9.6" cy="2.4" r="0.85"/><circle cx="-7.2" cy="2.4" r="0.85"/><circle cx="-4.8" cy="2.4" r="0.85"/><circle cx="-2.4" cy="2.4" r="0.85"/><circle cx="0" cy="2.4" r="0.85"/><circle cx="2.4" cy="2.4" r="0.85"/><circle cx="4.8" cy="2.4" r="0.85"/><circle cx="7.2" cy="2.4" r="0.85"/>
            <circle cx="9.6" cy="2.4" r="0.85"/><circle cx="-8.4" cy="4.8" r="0.85"/><circle cx="-6" cy="4.8" r="0.85"/><circle cx="-3.6" cy="4.8" r="0.85"/><circle cx="-1.2" cy="4.8" r="0.85"/><circle cx="1.2" cy="4.8" r="0.85"/><circle cx="3.6" cy="4.8" r="0.85"/><circle cx="6" cy="4.8" r="0.85"/>
            <circle cx="8.4" cy="4.8" r="0.85"/><circle cx="-7.2" cy="7.2" r="0.85"/><circle cx="-4.8" cy="7.2" r="0.85"/><circle cx="-2.4" cy="7.2" r="0.85"/><circle cx="0" cy="7.2" r="0.85"/><circle cx="2.4" cy="7.2" r="0.85"/><circle cx="4.8" cy="7.2" r="0.85"/><circle cx="7.2" cy="7.2" r="0.85"/>
            <circle cx="-6" cy="9.6" r="0.85"/><circle cx="-3.6" cy="9.6" r="0.85"/><circle cx="-1.2" cy="9.6" r="0.85"/><circle cx="1.2" cy="9.6" r="0.85"/><circle cx="3.6" cy="9.6" r="0.85"/><circle cx="6" cy="9.6" r="0.85"/>
          </g>
          <circle r="13.5" fill="none" stroke="#121212" stroke-width="1.4"/>
        </g>
      </svg>
