<svg xmlns="http://www.w3.org/2000/svg" viewBox="0 0 100 92"><g fill="#fff" stroke="#121212" stroke-width="1.6" stroke-linejoin="round"><path d="M25,40 L65,40 L65,80 L25,80 Z"/><path d="M25,40 L40,25 L80,25 L65,40 Z"/><path d="M65,40 L80,25 L80,65 L65,80 Z"/></g><g stroke="#121212" stroke-width="0.9" fill="none" stroke-linecap="round"><line x1="38.3" y1="40" x2="38.3" y2="80"/><line x1="51.6" y1="40" x2="51.6" y2="80"/><line x1="25" y1="53.3" x2="65" y2="53.3"/><line x1="25" y1="66.6" x2="65" y2="66.6"/><line x1="38.3" y1="40" x2="53.3" y2="25"/><line x1="51.6" y1="40" x2="66.6" y2="25"/><line x1="30" y1="35" x2="70" y2="35"/><line x1="35" y1="30" x2="75" y2="30"/><line x1="65" y1="53.3" x2="80" y2="38.3"/><line x1="65" y1="66.6" x2="80" y2="51.6"/><line x1="70" y1="35" x2="70" y2="75"/><line x1="75" y1="30" x2="75" y2="70"/></g></svg>
