<svg xmlns="http://www.w3.org/2000/svg" viewBox="0 0 120 150"><g fill="none" stroke="#121212" stroke-width="1.4" stroke-linecap="round" stroke-linejoin="round"><path d="M46,20 L54,78"/><path d="M74,20 L66,78"/><path d="M46,20 L74,20"/><path d="M52,44 L68,44" stroke-width="1"/><circle cx="60" cy="98" r="22" fill="#fff"/><circle cx="60" cy="98" r="16" stroke-width="1"/><path d="M54,78 L60,88 L66,78" fill="#fff"/></g><g fill="none" stroke="#121212" stroke-width="0.8"><line x1="60" y1="76" x2="60" y2="82"/><line x1="38" y1="98" x2="44" y2="98"/><line x1="76" y1="98" x2="82" y2="98"/><line x1="60" y1="114" x2="60" y2="120"/><line x1="45" y1="83" x2="49" y2="87"/><line x1="71" y1="87" x2="75" y2="83"/><line x1="45" y1="113" x2="49" y2="109"/><line x1="71" y1="109" x2="75" y2="113"/></g><path d="M53,99 l4,4 l9,-11" fill="none" stroke="#121212" stroke-width="1.6" stroke-linecap="round" stroke-linejoin="round"/></svg>
