<svg xmlns="http://www.w3.org/2000/svg" viewBox="0 0 140 120"><g fill="none" stroke="#121212" stroke-width="1.2" stroke-linecap="round" stroke-linejoin="round"><path d="M20,118 C22,96 18,84 24,66"/><path d="M36,118 C34,92 40,80 34,60"/><path d="M52,118 C55,98 50,86 54,72"/><path d="M108,118 C106,94 112,82 106,64"/><path d="M122,118 C124,98 119,88 123,74"/><path d="M34,60 q-6,-3 -9,2"/><path d="M34,60 q6,-4 10,1"/><path d="M24,66 q-5,-2 -7,3"/><path d="M106,64 q-5,-3 -9,1"/><path d="M106,64 q6,-3 9,2"/><g stroke-width="1"><path d="M46,84 l3,-4 l3,4 l-3,4 Z"/><path d="M116,90 l3,-4 l3,4 l-3,4 Z"/><path d="M30,96 l0,-6 M27.5,92 l5,0"/></g></g><g fill="none" stroke="#121212" stroke-width="1.3" stroke-linecap="round" stroke-linejoin="round"><line x1="78" y1="30" x2="78" y2="52"/><path d="M78,34 q-16,-16 -22,-4 q-5,11 22,10" fill="#fff"/><path d="M78,34 q16,-16 22,-4 q5,11 -22,10" fill="#fff"/><path d="M78,44 q-13,4 -16,14 q-2,9 16,2" fill="#fff"/><path d="M78,44 q13,4 16,14 q2,9 -16,2" fill="#fff"/><path d="M78,30 q-3,-6 -6,-8" stroke-width="0.8"/><path d="M78,30 q3,-6 6,-8" stroke-width="0.8"/></g><g fill="#121212"><circle cx="66" cy="32" r="1"/><circle cx="90" cy="32" r="1"/><circle cx="69" cy="54" r="1"/><circle cx="87" cy="54" r="1"/></g></svg>
